<svg xmlns="http://www.w3.org/2000/svg" width="600" height="140" viewBox="0 0 600 140">
  <rect x="0" y="0" width="600" height="130" fill="#fafafa" rx="4"/>
  <text x="300" y="18" text-anchor="middle" font-size="11" fill="#333" font-weight="bold" font-family="sans-serif">趋势追踪策略 K 线 — 快线 SMA_20 上穿慢线 SMA_50 时买入，下穿时卖出</text>
  <line x1="50" y1="115" x2="570" y2="115" stroke="#ccc" stroke-width="0.5"/>
  <text x="52" y="127" font-size="8" fill="#999" font-family="sans-serif">t0</text>
  <text x="135" y="127" font-size="8" fill="#999" font-family="sans-serif">t1</text>
  <text x="220" y="127" font-size="8" fill="#999" font-family="sans-serif">t2</text>
  <text x="305" y="127" font-size="8" fill="#999" font-family="sans-serif">t3</text>
  <text x="390" y="127" font-size="8" fill="#999" font-family="sans-serif">t4</text>
  <text x="475" y="127" font-size="8" fill="#999" font-family="sans-serif">t5</text>
  <text x="555" y="127" font-size="8" fill="#999" font-family="sans-serif">t6</text>
  <polyline points="50,105 130,100 220,85 305,65 390,50 475,35 560,30" fill="none" stroke="#e94560" stroke-width="1.5"/>
  <polyline points="50,108 130,103 220,95 305,82 390,68 475,55 560,48" fill="none" stroke="#0f3460" stroke-width="1.5" stroke-dasharray="4,3"/>
  <line x1="75" y1="86" x2="75" y2="100" stroke="#999" stroke-width="1"/>
  <rect x="71" y="90" width="8" height="8" fill="#999" opacity="0.3"/>
  <text x="60" y="84" font-size="8" fill="#999" font-family="sans-serif">$82</text>
  <text x="60" y="74" font-size="7" fill="#999" font-family="sans-serif">死叉</text>
  <line x1="150" y1="78" x2="150" y2="92" stroke="#999" stroke-width="1"/>
  <rect x="146" y="82" width="8" height="6" fill="#999" opacity="0.3"/>
  <text x="140" y="76" font-size="8" fill="#999" font-family="sans-serif">$86</text>
  <line x1="235" y1="58" x2="235" y2="75" stroke="#e94560" stroke-width="1.5"/>
  <rect x="231" y="62" width="8" height="8" fill="#e94560" opacity="0.6"/>
  <text x="225" y="56" font-size="8" fill="#e94560" font-family="sans-serif">$90</text>
  <polygon points="235,58 228,50 242,50" fill="#e94560" opacity="0.7"/>
  <text x="215" y="46" font-size="7" fill="#e94560" font-family="sans-serif">金叉买入</text>
  <line x1="320" y1="40" x2="320" y2="58" stroke="#0f3460" stroke-width="1.5"/>
  <rect x="316" y="46" width="8" height="8" fill="#0f3460" opacity="0.6"/>
  <text x="312" y="38" font-size="8" fill="#0f3460" font-family="sans-serif">$98</text>
  <line x1="405" y1="28" x2="405" y2="42" stroke="#0f3460" stroke-width="1.5"/>
  <rect x="401" y="32" width="8" height="6" fill="#0f3460" opacity="0.6"/>
  <text x="397" y="26" font-size="8" fill="#0f3460" font-family="sans-serif">$105</text>
  <text x="385" y="18" font-size="7" fill="#0f3460" font-family="sans-serif">趋势持有</text>
  <line x1="490" y1="22" x2="490" y2="38" stroke="#e94560" stroke-width="1.5"/>
  <rect x="486" y="26" width="8" height="8" fill="#e94560" opacity="0.6"/>
  <text x="480" y="20" font-size="8" fill="#e94560" font-family="sans-serif">$102</text>
  <polygon points="490,22 483,14 497,14" fill="#0f3460" opacity="0.7"/>
  <text x="460" y="10" font-size="7" fill="#0f3460" font-family="sans-serif">死叉卖出</text>
  <line x1="560" y1="28" x2="560" y2="42" stroke="#999" stroke-width="1"/>
  <rect x="556" y="32" width="8" height="6" fill="#999" opacity="0.3"/>
  <text x="550" y="26" font-size="8" fill="#999" font-family="sans-serif">$98</text>
  <line x1="50" y1="4" x2="75" y2="4" stroke="#e94560" stroke-width="1.5"/>
  <text x="78" y="7" font-size="7" fill="#e94560" font-family="sans-serif">SMA_20</text>
  <line x1="130" y1="4" x2="155" y2="4" stroke="#0f3460" stroke-width="1.5" stroke-dasharray="4,3"/>
  <text x="158" y="7" font-size="7" fill="#0f3460" font-family="sans-serif">SMA_50</text>
</svg>