<svg xmlns="http://www.w3.org/2000/svg" width="600" height="140" viewBox="0 0 600 140">
  <rect x="0" y="0" width="600" height="130" fill="#fafafa" rx="4"/>
  <text x="300" y="18" text-anchor="middle" font-size="11" fill="#333" font-weight="bold" font-family="sans-serif">无限网格策略 K 线 — 涨 3% 卖、跌 3% 买，持仓价值始终维持基准</text>
  <line x1="50" y1="115" x2="570" y2="115" stroke="#ccc" stroke-width="0.5"/>
  <text x="52" y="127" font-size="8" fill="#999" font-family="sans-serif">t0</text>
  <text x="118" y="127" font-size="8" fill="#999" font-family="sans-serif">t1</text>
  <text x="185" y="127" font-size="8" fill="#999" font-family="sans-serif">t2</text>
  <text x="252" y="127" font-size="8" fill="#999" font-family="sans-serif">t3</text>
  <text x="318" y="127" font-size="8" fill="#999" font-family="sans-serif">t4</text>
  <text x="385" y="127" font-size="8" fill="#999" font-family="sans-serif">t5</text>
  <text x="452" y="127" font-size="8" fill="#999" font-family="sans-serif">t6</text>
  <text x="520" y="127" font-size="8" fill="#999" font-family="sans-serif">t7</text>
  <line x1="40" y1="82" x2="580" y2="82" stroke="#ff9800" stroke-width="0.5" stroke-dasharray="3,4" opacity="0.5"/>
  <line x1="40" y1="62" x2="580" y2="62" stroke="#ff9800" stroke-width="0.5" stroke-dasharray="3,4" opacity="0.5"/>
  <line x1="40" y1="42" x2="580" y2="42" stroke="#ff9800" stroke-width="0.5" stroke-dasharray="3,4" opacity="0.5"/>
  <line x1="40" y1="28" x2="580" y2="28" stroke="#ff9800" stroke-width="0.5" stroke-dasharray="3,4" opacity="0.5"/>
  <text x="545" y="85" font-size="7" fill="#ff9800" font-family="sans-serif">网格</text>
  <polyline points="60,108 115,95 170,105 225,85 280,97 335,78 390,90 445,70 500,82 555,65" fill="none" stroke="#333" stroke-width="1"/>
  <rect x="65" y="100" width="2" height="15" fill="#0f3460" opacity="0.6"/>
  <text x="52" y="104" font-size="8" fill="#999" font-family="sans-serif">100</text>
  <rect x="122" y="85" width="2" height="12" fill="#0f3460" opacity="0.6"/>
  <text x="112" y="88" font-size="8" fill="#0f3460" font-family="sans-serif">103</text>
  <polygon points="130,85 123,77 137,77" fill="#0f3460" opacity="0.7"/>
  <text x="105" y="74" font-size="7" fill="#0f3460" font-family="sans-serif">卖</text>
  <rect x="178" y="95" width="2" height="12" fill="#e94560" opacity="0.6"/>
  <text x="168" y="98" font-size="8" fill="#e94560" font-family="sans-serif">99</text>
  <polygon points="186,105 179,113 193,113" fill="#e94560" opacity="0.7"/>
  <text x="170" y="116" font-size="7" fill="#e94560" font-family="sans-serif">买</text>
  <rect x="232" y="78" width="2" height="10" fill="#0f3460" opacity="0.6"/>
  <text x="222" y="80" font-size="8" fill="#0f3460" font-family="sans-serif">102</text>
  <polygon points="240,78 233,70 247,70" fill="#0f3460" opacity="0.7"/>
  <text x="225" y="66" font-size="7" fill="#0f3460" font-family="sans-serif">卖</text>
  <rect x="288" y="88" width="2" height="10" fill="#e94560" opacity="0.6"/>
  <text x="278" y="92" font-size="8" fill="#e94560" font-family="sans-serif">97</text>
  <polygon points="296,98 289,106 303,106" fill="#e94560" opacity="0.7"/>
  <text x="282" y="110" font-size="7" fill="#e94560" font-family="sans-serif">买</text>
  <rect x="342" y="72" width="2" height="10" fill="#0f3460" opacity="0.6"/>
  <text x="332" y="74" font-size="8" fill="#0f3460" font-family="sans-serif">100</text>
  <polygon points="350,72 343,64 357,64" fill="#0f3460" opacity="0.7"/>
  <text x="338" y="60" font-size="7" fill="#0f3460" font-family="sans-serif">卖</text>
  <rect x="398" y="82" width="2" height="10" fill="#e94560" opacity="0.6"/>
  <text x="388" y="86" font-size="8" fill="#e94560" font-family="sans-serif">95</text>
  <polygon points="406,92 399,100 413,100" fill="#e94560" opacity="0.7"/>
  <text x="392" y="104" font-size="7" fill="#e94560" font-family="sans-serif">买</text>
  <rect x="510" y="58" width="2" height="10" fill="#0f3460" opacity="0.6"/>
  <text x="500" y="60" font-size="8" fill="#0f3460" font-family="sans-serif">104</text>
  <polygon points="518,58 511,50 525,50" fill="#0f3460" opacity="0.7"/>
  <text x="504" y="46" font-size="7" fill="#0f3460" font-family="sans-serif">卖</text>
  <text x="400" y="10" font-size="7" fill="#0f3460" font-family="sans-serif">累计套利 +130 USDT</text>
</svg>